<svg width="532" height="136" viewBox="0 0 532 136" fill="none" xmlns="http://www.w3.org/2000/svg">
<rect width="532" height="136" fill="#111111"/>
<path d="M103.58 50.91L103.92 48.275C103.92 45.6683 102.9 43.9967 100.86 43.26C99.2733 42.75 98.055 42.495 97.205 42.495H97.12C95.42 42.495 93.9467 42.7783 92.7 43.345C91.4533 43.855 90.5467 44.5067 89.98 45.3C88.79 46.9433 88.11 48.6717 87.94 50.485C87.94 52.6383 88.9033 54.5083 90.83 56.095C92.7567 57.625 95.08 58.985 97.8 60.175C100.577 61.3083 103.325 62.555 106.045 63.915C108.822 65.275 111.173 67.23 113.1 69.78C115.027 72.33 115.99 75.39 115.99 78.96C115.99 85.93 113.78 91.1433 109.36 94.6C104.997 98.0567 100.01 99.785 94.4 99.785C88.8467 99.785 84.2283 98.5383 80.545 96.045C76.9183 93.495 75.105 90.095 75.105 85.845V85.76C75.105 83.6633 75.4167 81.85 76.04 80.32C76.72 78.7333 77.5133 77.5717 78.42 76.835C80.29 75.305 81.99 74.4833 83.52 74.37L84.54 74.285C86.1267 74.285 87.5717 74.6817 88.875 75.475C90.1783 76.2117 90.83 77.26 90.83 78.62C90.83 79.3 90.4617 79.8667 89.725 80.32C88.9883 80.7733 88.3367 81.4533 87.77 82.36C87.26 83.2667 86.9767 84.0317 86.92 84.655L86.75 85.59C86.75 89.0467 88.3367 91.3417 91.51 92.475C92.6433 92.8717 93.55 93.07 94.23 93.07C97.3467 93.07 99.84 92.135 101.71 90.265C103.637 88.395 104.6 86.015 104.6 83.125C104.6 79.6683 103.127 76.8633 100.18 74.71C97.97 73.1233 95.5617 71.7917 92.955 70.715C90.405 69.6383 88.6767 68.8733 87.77 68.42C86.8633 67.9667 85.9 67.4283 84.88 66.805C83.86 66.1817 82.7267 65.3033 81.48 64.17C78.76 61.79 77.4 58.5883 77.4 54.565C77.4 50.485 78.505 47.0567 80.715 44.28C84.6817 39.2367 90.6317 36.715 98.565 36.715C102.758 36.715 106.3 37.5367 109.19 39.18C112.08 40.7667 113.525 42.9767 113.525 45.81C113.525 47.85 112.93 49.55 111.74 50.91C110.607 52.27 109.133 52.95 107.32 52.95C106.47 52.95 105.62 52.78 104.77 52.44C103.977 52.1 103.58 51.59 103.58 50.91ZM148.27 72.5L148.1 83.38C148.1 90.9167 148.922 95.45 150.565 96.98C150.792 97.2067 150.905 97.4617 150.905 97.745C150.905 98.595 149.063 99.02 145.38 99.02C141.753 99.02 139.827 97.9433 139.6 95.79C139.543 95.28 139.515 94.2317 139.515 92.645L139.855 79.045C139.855 78.6483 139.628 78.45 139.175 78.45C136.455 78.45 133.905 79.215 131.525 80.745C129.145 82.275 127.955 84.23 127.955 86.61C127.955 87.8567 128.295 88.905 128.975 89.755C129.655 90.605 130.477 91.03 131.44 91.03C132.46 91.03 133.282 90.8317 133.905 90.435C134.585 90.0383 134.982 89.8117 135.095 89.755C136.058 89.8683 136.54 90.8883 136.54 92.815C136.54 94.685 135.662 96.215 133.905 97.405C132.148 98.5383 130.307 99.105 128.38 99.105C126.453 99.105 124.782 98.765 123.365 98.085C122.005 97.405 121.013 96.64 120.39 95.79C119.767 94.94 119.257 93.9767 118.86 92.9C118.463 91.5967 118.265 90.4633 118.265 89.5C118.265 85.5333 119.512 82.36 122.005 79.98C124.498 77.6 127.7 75.9 131.61 74.88C136.767 73.86 139.458 72.925 139.685 72.075C139.855 71.4517 139.94 70.4033 139.94 68.93C139.94 65.9267 138.41 64.425 135.35 64.425C134.047 64.425 132.885 64.85 131.865 65.7C130.845 66.4933 130.335 67.5133 130.335 68.76L130.845 70.8C130.732 71.7633 129.712 72.33 127.785 72.5L126.85 72.585C125.15 72.585 123.79 72.16 122.77 71.31C121.807 70.46 121.325 69.3267 121.325 67.91C121.325 67.0033 121.608 66.0117 122.175 64.935C122.798 63.8017 123.563 62.895 124.47 62.215C125.377 61.535 126.765 60.94 128.635 60.43C130.562 59.8633 132.403 59.58 134.16 59.58C135.917 59.58 137.277 59.6367 138.24 59.75C139.203 59.8633 140.507 60.1467 142.15 60.6C143.85 60.9967 145.238 61.79 146.315 62.98C147.448 64.17 148.043 65.445 148.1 66.805C148.213 68.1083 148.27 70.0067 148.27 72.5ZM162.17 52.525L160.13 52.44C158.6 52.44 157.609 52.8083 157.155 53.545C157.042 53.715 156.9 53.8 156.73 53.8C155.994 53.8 155.625 52.5533 155.625 50.06C155.625 47.51 155.994 45.895 156.73 45.215C157.524 44.535 158.855 44.195 160.725 44.195C162.652 44.195 163.955 44.535 164.635 45.215C165.315 45.8383 165.655 46.915 165.655 48.445C165.655 49.975 165.4 51.0517 164.89 51.675C164.38 52.2417 163.474 52.525 162.17 52.525ZM155.37 95.45L156.305 75.645C156.305 70.9417 155.767 67.74 154.69 66.04C154.35 65.4733 153.954 65.0483 153.5 64.765C153.16 64.6517 152.99 64.425 152.99 64.085C152.99 63.065 154.435 62.0733 157.325 61.11C160.215 60.1467 162.312 59.665 163.615 59.665C164.975 59.665 165.684 60.005 165.74 60.685C165.74 61.8183 165.57 65.0483 165.23 70.375C164.947 75.645 164.805 81.1983 164.805 87.035C164.805 92.8717 165.145 96.4983 165.825 97.915C165.995 98.1983 166.08 98.4817 166.08 98.765C166.08 99.5017 165.004 99.87 162.85 99.87C160.697 99.87 158.487 99.3033 156.22 98.17C155.654 97.8867 155.37 96.98 155.37 95.45ZM223.255 78.535C224.332 78.535 224.87 79.895 224.87 82.615C224.87 85.335 224.36 87.7717 223.34 89.925C222.32 92.0783 221.074 93.75 219.6 94.94C218.184 96.13 216.569 97.0933 214.755 97.83C208.692 100.493 203.025 100.437 197.755 97.66C195.092 96.2433 193.052 94.5717 191.635 92.645C190.219 90.6617 189.085 88.31 188.235 85.59C186.932 81.51 186.28 77.2317 186.28 72.755C186.28 68.2783 186.705 64.085 187.555 60.175C188.405 56.265 189.709 52.5533 191.465 49.04C193.222 45.47 195.715 42.6083 198.945 40.455C202.175 38.3017 205.915 37.225 210.165 37.225C211.979 37.225 213.849 37.5367 215.775 38.16C217.759 38.7267 219.374 39.4633 220.62 40.37C221.867 41.22 222.972 42.5517 223.935 44.365C224.899 46.1783 225.38 48.3033 225.38 50.74C225.38 53.3467 224.757 55.6983 223.51 57.795C222.944 58.7583 222.037 59.6367 220.79 60.43C219.544 61.1667 218.07 61.535 216.37 61.535C213.764 61.535 211.922 60.3733 210.845 58.05C210.392 57.1433 210.165 56.1517 210.165 55.075C210.165 53.9983 210.534 53.375 211.27 53.205C212.064 52.9783 212.8 52.355 213.48 51.335C214.16 50.315 214.5 49.125 214.5 47.765C214.5 46.6883 214.217 45.7533 213.65 44.96C212.574 43.5433 211.015 42.835 208.975 42.835C206.935 42.835 205.065 43.77 203.365 45.64C201.722 47.51 200.475 49.8617 199.625 52.695C197.925 58.3617 197.075 63.575 197.075 68.335C197.075 73.095 197.727 76.92 199.03 79.81C200.617 83.38 202.629 85.76 205.065 86.95C206.595 87.6867 208.352 88.055 210.335 88.055C213.679 88.055 216.682 86.5533 219.345 83.55C220.479 82.36 221.414 80.9433 222.15 79.3C222.434 78.79 222.802 78.535 223.255 78.535ZM255.458 75.22L255.798 78.195C255.798 79.2717 254.778 79.81 252.738 79.81C248.602 79.81 246.533 78.2517 246.533 75.135C246.533 74.3983 246.732 73.3783 247.128 72.075C247.525 70.7717 247.723 69.6383 247.723 68.675C247.723 67.7117 247.44 66.89 246.873 66.21C246.307 65.4733 245.485 65.105 244.408 65.105C243.332 65.105 242.397 65.5017 241.603 66.295C240.867 67.0317 240.413 67.7967 240.243 68.59L239.903 69.78C239.563 71.5367 239.393 74.4833 239.393 78.62C239.393 82.7 239.45 85.93 239.563 88.31C239.677 90.6333 239.79 92.2483 239.903 93.155C240.017 94.005 240.073 94.515 240.073 94.685C240.073 96.1017 239.195 97.235 237.438 98.085C235.682 98.9917 233.925 99.445 232.168 99.445C230.412 99.445 229.533 99.0767 229.533 98.34L229.958 95.705C230.752 90.775 231.148 84.3433 231.148 76.41C231.148 68.4767 230.865 63.0933 230.298 60.26C230.298 59.58 230.893 59.24 232.083 59.24C235.143 59.24 237.183 60.2883 238.203 62.385C238.26 62.6117 238.345 62.725 238.458 62.725C238.628 62.725 239.025 62.47 239.648 61.96C241.518 60.43 243.728 59.665 246.278 59.665C247.865 59.665 249.452 59.9767 251.038 60.6C254.268 61.9033 255.883 64.6233 255.883 68.76L255.458 75.22ZM267.823 76.41L267.908 78.535C267.908 78.875 268.135 79.045 268.588 79.045C270.402 78.875 271.988 78.4217 273.348 77.685C274.708 76.8917 275.728 76.0133 276.408 75.05C277.768 72.9533 278.505 71.14 278.618 69.61L278.703 68.59C278.703 65.53 277.485 64 275.048 64C273.235 64 271.762 64.7933 270.628 66.38C268.758 68.8733 267.823 72.2167 267.823 76.41ZM286.353 87.715C286.353 89.8683 285.9 91.7667 284.993 93.41C284.143 94.9967 283.152 96.1867 282.018 96.98C280.942 97.7167 279.667 98.3117 278.193 98.765C276.323 99.3317 274.538 99.615 272.838 99.615C268.078 99.615 264.565 97.83 262.298 94.26C260.032 90.69 258.898 86.1567 258.898 80.66C258.898 75.1067 260.287 70.1767 263.063 65.87C265.897 61.5633 270.118 59.41 275.728 59.41C280.828 59.41 284.285 61.195 286.098 64.765C286.835 66.125 287.203 67.4283 287.203 68.675C287.203 69.865 287.147 70.8283 287.033 71.565C286.92 72.245 286.523 73.2933 285.843 74.71C285.163 76.1267 284.257 77.4017 283.123 78.535C281.99 79.6683 280.205 80.745 277.768 81.765C275.332 82.785 272.47 83.465 269.183 83.805C268.73 83.805 268.503 84.0033 268.503 84.4C268.503 84.91 268.673 85.675 269.013 86.695C269.41 87.6583 269.835 88.48 270.288 89.16C271.535 90.7467 273.377 91.54 275.813 91.54C278.25 91.54 280.318 90.7467 282.018 89.16C282.925 88.31 283.662 87.2617 284.228 86.015C284.455 85.5617 284.738 85.335 285.078 85.335C285.475 85.335 285.787 85.6467 286.013 86.27C286.24 86.8933 286.353 87.375 286.353 87.715ZM318.27 72.5L318.1 83.38C318.1 90.9167 318.922 95.45 320.565 96.98C320.792 97.2067 320.905 97.4617 320.905 97.745C320.905 98.595 319.063 99.02 315.38 99.02C311.753 99.02 309.827 97.9433 309.6 95.79C309.543 95.28 309.515 94.2317 309.515 92.645L309.855 79.045C309.855 78.6483 309.628 78.45 309.175 78.45C306.455 78.45 303.905 79.215 301.525 80.745C299.145 82.275 297.955 84.23 297.955 86.61C297.955 87.8567 298.295 88.905 298.975 89.755C299.655 90.605 300.477 91.03 301.44 91.03C302.46 91.03 303.282 90.8317 303.905 90.435C304.585 90.0383 304.982 89.8117 305.095 89.755C306.058 89.8683 306.54 90.8883 306.54 92.815C306.54 94.685 305.662 96.215 303.905 97.405C302.148 98.5383 300.307 99.105 298.38 99.105C296.453 99.105 294.782 98.765 293.365 98.085C292.005 97.405 291.013 96.64 290.39 95.79C289.767 94.94 289.257 93.9767 288.86 92.9C288.463 91.5967 288.265 90.4633 288.265 89.5C288.265 85.5333 289.512 82.36 292.005 79.98C294.498 77.6 297.7 75.9 301.61 74.88C306.767 73.86 309.458 72.925 309.685 72.075C309.855 71.4517 309.94 70.4033 309.94 68.93C309.94 65.9267 308.41 64.425 305.35 64.425C304.047 64.425 302.885 64.85 301.865 65.7C300.845 66.4933 300.335 67.5133 300.335 68.76L300.845 70.8C300.732 71.7633 299.712 72.33 297.785 72.5L296.85 72.585C295.15 72.585 293.79 72.16 292.77 71.31C291.807 70.46 291.325 69.3267 291.325 67.91C291.325 67.0033 291.608 66.0117 292.175 64.935C292.798 63.8017 293.563 62.895 294.47 62.215C295.377 61.535 296.765 60.94 298.635 60.43C300.562 59.8633 302.403 59.58 304.16 59.58C305.917 59.58 307.277 59.6367 308.24 59.75C309.203 59.8633 310.507 60.1467 312.15 60.6C313.85 60.9967 315.238 61.79 316.315 62.98C317.448 64.17 318.043 65.445 318.1 66.805C318.213 68.1083 318.27 70.0067 318.27 72.5ZM322.14 64.85L322.395 61.45C322.452 60.94 322.849 60.685 323.585 60.685H326.56L326.22 53.885V53.545C326.22 52.2417 327.212 50.995 329.195 49.805C331.179 48.615 332.992 48.02 334.635 48.02C335.145 48.02 335.4 48.2467 335.4 48.7V48.785C335.174 50.315 334.947 54.2533 334.72 60.6C337.214 60.6 338.8 60.5433 339.48 60.43C340.16 60.3167 340.529 60.26 340.585 60.26C340.982 60.26 341.18 60.6 341.18 61.28C341.18 61.96 340.869 62.8383 340.245 63.915C339.622 64.935 338.942 65.4733 338.205 65.53H334.635C334.579 67.4567 334.55 70.715 334.55 75.305C334.55 79.8383 334.579 83.5783 334.635 86.525C334.749 89.4717 334.862 91.71 334.975 93.24C335.089 94.7133 335.202 95.9033 335.315 96.81C335.485 97.7167 335.599 98.3683 335.655 98.765C335.769 99.1617 335.825 99.4167 335.825 99.53C335.825 100.097 335.457 100.408 334.72 100.465C332.51 100.465 330.3 100.153 328.09 99.53C325.937 98.9067 324.86 97.83 324.86 96.3C326.05 86.78 326.645 76.5517 326.645 65.615C325.115 65.615 323.954 65.6717 323.16 65.785H323.075C322.565 65.785 322.254 65.4733 322.14 64.85ZM351.179 52.525L349.139 52.44C347.609 52.44 346.617 52.8083 346.164 53.545C346.051 53.715 345.909 53.8 345.739 53.8C345.002 53.8 344.634 52.5533 344.634 50.06C344.634 47.51 345.002 45.895 345.739 45.215C346.532 44.535 347.864 44.195 349.734 44.195C351.661 44.195 352.964 44.535 353.644 45.215C354.324 45.8383 354.664 46.915 354.664 48.445C354.664 49.975 354.409 51.0517 353.899 51.675C353.389 52.2417 352.482 52.525 351.179 52.525ZM344.379 95.45L345.314 75.645C345.314 70.9417 344.776 67.74 343.699 66.04C343.359 65.4733 342.962 65.0483 342.509 64.765C342.169 64.6517 341.999 64.425 341.999 64.085C341.999 63.065 343.444 62.0733 346.334 61.11C349.224 60.1467 351.321 59.665 352.624 59.665C353.984 59.665 354.692 60.005 354.749 60.685C354.749 61.8183 354.579 65.0483 354.239 70.375C353.956 75.645 353.814 81.1983 353.814 87.035C353.814 92.8717 354.154 96.4983 354.834 97.915C355.004 98.1983 355.089 98.4817 355.089 98.765C355.089 99.5017 354.012 99.87 351.859 99.87C349.706 99.87 347.496 99.3033 345.229 98.17C344.662 97.8867 344.379 96.98 344.379 95.45ZM368.352 65.955C366.878 66.0117 365.802 66.0683 365.122 66.125C364.498 66.125 364.187 65.955 364.187 65.615C364.187 65.275 364.357 64.935 364.697 64.595C368.323 61.2517 374.443 59.58 383.057 59.58C386.003 59.58 388.327 59.835 390.027 60.345L390.877 60.6C391.557 60.8833 391.897 61.195 391.897 61.535C391.897 61.8183 391.698 62.045 391.302 62.215C389.772 62.6683 388.298 63.405 386.882 64.425C385.465 65.3883 384.757 66.0683 384.757 66.465L385.267 67.06C387.08 68.08 388.468 69.695 389.432 71.905C390.452 74.115 391.018 76.07 391.132 77.77L391.302 80.405C391.302 86.015 389.743 90.6333 386.627 94.26C383.51 97.8867 379.26 99.7 373.877 99.7C371.157 99.7 368.805 99.2183 366.822 98.255C364.838 97.2917 363.365 96.215 362.402 95.025C361.495 93.7783 360.758 92.39 360.192 90.86C359.512 88.7633 359.172 86.61 359.172 84.4C359.172 82.1333 359.54 79.8667 360.277 77.6C361.07 75.3333 361.948 73.6617 362.912 72.585C363.932 71.5083 365.065 70.63 366.312 69.95C367.898 69.1 369.173 68.675 370.137 68.675C371.1 68.675 371.582 68.8733 371.582 69.27L371.072 70.12C369.825 71.5933 368.918 73.52 368.352 75.9C367.842 78.28 367.587 80.405 367.587 82.275C367.587 84.0883 367.813 85.9017 368.267 87.715C368.72 89.5283 369.23 90.8883 369.797 91.795C370.363 92.645 371.015 93.2967 371.752 93.75C372.828 94.43 373.962 94.77 375.152 94.77C376.342 94.77 377.503 94.3167 378.637 93.41C379.77 92.4467 380.592 91.2 381.102 89.67C382.122 86.8367 382.632 83.9183 382.632 80.915C382.632 76.155 381.413 72.4717 378.977 69.865C376.597 67.2583 373.055 65.955 368.352 65.955ZM395.466 98.595C396.486 92.475 396.996 85.1367 396.996 76.58C396.996 68.0233 396.741 62.47 396.231 59.92C396.231 59.1833 397.081 58.815 398.781 58.815C401.388 58.815 403.116 59.8067 403.966 61.79C404.023 61.96 404.164 62.045 404.391 62.045C404.618 62.045 404.788 61.9883 404.901 61.875C406.658 60.0617 409.378 59.155 413.061 59.155C416.744 59.155 419.663 60.09 421.816 61.96C423.969 63.83 425.046 66.55 425.046 70.12C425.046 72.2733 424.848 75.3333 424.451 79.3C424.111 83.2667 423.941 86.2133 423.941 88.14C423.941 92.73 424.706 96.045 426.236 98.085C426.463 98.3683 426.576 98.6517 426.576 98.935C426.576 99.6717 425.783 100.04 424.196 100.04C417.169 100.04 413.656 96.9233 413.656 90.69C413.656 88.31 414.194 84.995 415.271 80.745C416.348 76.495 416.886 73.265 416.886 71.055C416.886 66.5217 415.016 64.255 411.276 64.255C409.463 64.255 408.074 64.7933 407.111 65.87C406.204 66.9467 405.694 68.1933 405.581 69.61C405.468 70.97 405.411 73.5767 405.411 77.43C405.411 83.3233 405.609 88.4517 406.006 92.815L406.176 94.685C406.176 96.2717 405.128 97.49 403.031 98.34C400.991 99.2467 399.206 99.7 397.676 99.7C396.203 99.7 395.466 99.3317 395.466 98.595ZM455.256 86.355C455.256 88.7917 454.775 90.9167 453.811 92.73C452.905 94.5433 451.856 95.875 450.666 96.725C449.476 97.575 448.06 98.255 446.416 98.765C444.263 99.445 442.308 99.785 440.551 99.785C436.868 99.785 433.808 99.0767 431.371 97.66C428.935 96.1867 427.716 93.8633 427.716 90.69C427.716 88.82 428.226 87.29 429.246 86.1C430.833 84.3433 432.731 83.465 434.941 83.465C435.621 83.465 435.961 83.7767 435.961 84.4C435.961 84.4567 435.82 84.91 435.536 85.76C435.31 86.5533 435.196 87.5733 435.196 88.82C435.196 90.0667 435.678 91.1717 436.641 92.135C437.661 93.0983 438.88 93.58 440.296 93.58C441.713 93.58 442.846 93.3533 443.696 92.9C444.546 92.39 445.141 91.7667 445.481 91.03C445.991 90.01 446.246 89.0467 446.246 88.14C446.246 86.4967 445.425 85.08 443.781 83.89C442.138 82.7 440.325 81.765 438.341 81.085C436.358 80.405 434.545 79.2717 432.901 77.685C431.258 76.0983 430.436 74.115 430.436 71.735C430.436 67.655 431.711 64.595 434.261 62.555C436.868 60.515 440.381 59.495 444.801 59.495C446.728 59.495 448.74 59.7783 450.836 60.345C452.99 60.855 454.066 61.7617 454.066 63.065C454.066 64.3117 453.84 65.4733 453.386 66.55C452.99 67.6267 452.48 68.165 451.856 68.165C451.516 68.165 451.29 68.0517 451.176 67.825C451.063 67.5417 450.865 67.23 450.581 66.89C450.298 66.55 449.618 66.125 448.541 65.615C447.465 65.0483 446.53 64.765 445.736 64.765C445 64.765 444.49 64.7933 444.206 64.85C443.98 64.85 443.555 64.935 442.931 65.105C442.308 65.2183 441.741 65.4167 441.231 65.7C439.928 66.4367 439.276 67.5133 439.276 68.93C439.276 69.8367 439.475 70.5167 439.871 70.97C440.268 71.3667 440.58 71.6783 440.806 71.905C441.033 72.1317 441.43 72.415 441.996 72.755C442.563 73.0383 442.96 73.2367 443.186 73.35C443.413 73.4633 443.923 73.7183 444.716 74.115C445.51 74.455 446.02 74.6817 446.246 74.795C452.253 77.6283 455.256 81.4817 455.256 86.355Z" fill="white"/>
</svg>
